<?xml version="1.0" standalone="no"?>
<!DOCTYPE svg PUBLIC "-//W3C//DTD SVG 20010904//EN"
 "http://www.w3.org/TR/2001/REC-SVG-20010904/DTD/svg10.dtd">
<svg version="1.0" xmlns="http://www.w3.org/2000/svg"
 width="274.000000pt" height="274.000000pt" viewBox="0 0 274.000000 274.000000"
 preserveAspectRatio="xMidYMid meet">

<g transform="translate(0.000000,274.000000) scale(0.100000,-0.100000)"
fill="#000000" stroke="none">
<path d="M1260 2359 c-13 -9 -12 -10 3 -5 24 8 21 -1 -4 -15 -13 -7 -19 -7
-15 -1 3 6 3 13 -2 16 -10 6 -93 -14 -109 -27 -9 -6 -18 -6 -27 2 -10 9 -16 8
-26 -4 -7 -9 -19 -14 -25 -11 -7 2 -18 -1 -24 -7 -6 -6 -11 -7 -11 -3 0 5 -7
3 -15 -4 -8 -7 -15 -9 -15 -6 0 4 -9 2 -20 -4 -11 -6 -20 -21 -20 -33 0 -14
-3 -18 -8 -10 -9 14 -52 6 -52 -9 0 -5 -4 -6 -10 -3 -5 3 -10 1 -10 -5 0 -6
-4 -8 -10 -5 -5 3 -10 2 -10 -4 0 -6 -11 -13 -25 -17 -14 -3 -25 -10 -25 -16
0 -5 -4 -6 -10 -3 -5 3 -10 1 -10 -4 0 -6 -10 -11 -22 -11 -19 0 -20 -2 -8
-10 13 -8 13 -10 -1 -10 -19 0 -32 -26 -22 -43 3 -7 3 -9 -2 -5 -9 8 -75 -39
-75 -54 0 -5 5 -6 12 -2 7 4 8 3 4 -4 -4 -7 -14 -12 -22 -12 -13 0 -36 -38
-38 -63 -1 -5 -13 -19 -27 -30 -32 -26 -46 -54 -43 -85 1 -16 -3 -22 -13 -18
-9 4 -13 0 -12 -12 2 -18 -4 -38 -26 -87 -27 -60 -35 -95 -22 -96 7 0 3 -4 -8
-9 -11 -5 -15 -9 -9 -9 7 -1 14 -8 17 -15 4 -11 1 -13 -10 -9 -13 5 -15 2 -9
-13 12 -31 12 -39 -1 -37 -15 3 -18 -14 -3 -19 5 -1 10 -36 11 -77 l2 -73 19
31 c11 17 22 31 25 31 3 0 -2 -11 -11 -25 -9 -13 -16 -26 -16 -29 0 -3 28 -7
62 -9 l63 -3 -73 -2 -72 -2 20 -41 c12 -23 19 -43 17 -45 -2 -3 -10 9 -17 26
-16 38 -34 39 -28 1 2 -17 1 -28 -4 -25 -4 3 -8 15 -8 27 0 12 -4 29 -10 37
-14 23 -23 -10 -11 -42 5 -14 7 -29 3 -34 -4 -4 -2 -4 5 0 18 10 23 -8 13 -44
-6 -23 -6 -38 1 -46 6 -7 8 -18 4 -24 -3 -5 -1 -10 6 -10 7 0 9 -8 6 -21 -5
-17 -3 -18 11 -7 13 11 14 11 8 -1 -5 -8 -3 -17 5 -23 11 -8 10 -9 -3 -4 -21
6 -22 -5 -3 -54 7 -19 14 -28 15 -20 1 8 6 -5 11 -30 5 -25 13 -46 19 -48 6
-2 8 -8 4 -13 -3 -5 -1 -9 4 -9 5 0 12 -12 15 -27 11 -51 23 -60 48 -38 l22
20 -14 -22 c-8 -13 -17 -23 -22 -23 -4 0 5 -12 20 -26 15 -14 21 -22 13 -18
-8 4 3 -12 24 -34 22 -23 44 -38 49 -35 6 4 0 14 -12 25 -13 10 -19 18 -14 18
5 0 47 -38 92 -84 45 -47 84 -85 87 -85 2 -1 9 -1 15 -1 5 0 8 -4 4 -9 -3 -6
4 -8 16 -6 15 3 19 0 15 -10 -3 -9 1 -15 9 -15 8 0 15 -4 15 -10 0 -5 9 -10
20 -10 11 0 23 -7 26 -15 4 -8 10 -12 16 -9 5 3 8 -2 6 -11 -2 -14 13 -23 66
-41 49 -17 72 -21 77 -13 4 8 10 6 16 -5 9 -17 124 -42 150 -32 7 3 13 2 13
-2 0 -16 39 -10 43 6 3 12 5 10 6 -5 1 -25 20 -30 40 -11 10 11 12 10 9 -2 -3
-17 52 -27 80 -14 10 3 26 8 37 9 40 6 52 11 69 28 10 9 21 15 26 12 5 -3 21
0 37 7 15 6 33 11 38 10 14 -2 50 58 48 78 -2 10 -1 11 3 2 5 -10 9 -10 22 0
10 7 6 0 -7 -14 -13 -15 -21 -33 -18 -40 4 -11 6 -11 6 0 1 7 6 10 11 7 6 -3
10 -2 10 4 0 5 16 15 36 21 22 7 33 17 30 25 -2 7 1 12 7 12 32 -1 48 4 42 13
-3 5 3 10 13 10 11 0 23 7 26 16 3 8 10 13 15 10 5 -3 11 1 15 9 3 8 12 15 21
15 8 0 15 4 15 10 0 5 -8 6 -17 3 -14 -5 -13 -3 3 13 10 11 21 17 24 13 8 -11
81 41 74 53 -4 6 -3 8 3 5 13 -8 97 78 89 92 -4 6 0 11 9 11 9 0 13 4 10 10
-3 5 -1 10 5 10 6 0 8 5 5 10 -3 6 -1 10 4 10 6 0 11 6 11 14 0 8 6 21 13 28
43 45 52 92 15 73 -13 -6 10 14 43 38 21 17 50 93 42 113 -4 10 -2 15 4 11 5
-3 10 -1 11 6 2 21 11 61 18 86 5 17 4 22 -4 17 -8 -5 -12 4 -11 31 1 23 3 29
6 16 2 -13 9 -23 14 -23 6 0 7 5 4 10 -4 6 -1 17 5 25 7 8 9 15 5 15 -4 0 -3
6 3 13 17 20 -2 41 -30 34 -19 -5 -24 -2 -25 13 -1 11 2 20 8 20 5 0 9 -4 9
-10 0 -5 9 -10 19 -10 14 0 19 6 18 20 -1 11 -5 20 -9 20 -4 0 -5 7 -2 15 4 8
1 15 -4 15 -6 0 -13 -8 -15 -17 -3 -10 -5 -2 -6 17 0 26 2 31 9 20 16 -25 13
11 -5 54 -9 22 -11 36 -5 36 7 0 8 6 1 19 -6 10 -8 21 -4 24 3 4 1 12 -5 19
-6 7 -12 18 -14 23 -1 6 -6 9 -9 8 -3 -1 -5 9 -3 23 2 25 -33 144 -46 154 -4
3 -13 20 -21 38 -8 17 -18 32 -24 32 -5 0 -4 4 3 8 9 6 5 12 -13 22 -23 12
-28 12 -36 0 -8 -11 -9 -7 -6 14 6 38 -11 76 -34 76 -10 0 -21 5 -25 12 -5 7
-3 8 6 3 7 -5 5 6 -6 25 -15 26 -92 88 -101 82 -2 -1 -14 10 -28 24 -14 14
-30 22 -35 19 -6 -4 -9 -3 -8 2 2 4 -1 9 -5 10 -4 1 -15 9 -23 18 -9 8 -19 13
-24 10 -5 -3 -10 -2 -12 3 -5 13 -128 72 -149 72 -10 0 -19 5 -19 11 0 5 -4 8
-9 5 -5 -4 -11 -1 -13 5 -2 6 -27 11 -56 12 -29 1 -52 5 -52 9 0 4 -6 5 -14 2
-8 -3 -17 -1 -21 5 -3 6 -12 11 -18 11 -7 0 -6 -4 3 -10 8 -5 10 -10 5 -10 -6
0 -16 5 -22 11 -15 15 -46 18 -60 6 -9 -6 -13 -6 -13 3 0 9 -7 7 -20 -5 -18
-17 -20 -17 -14 -2 5 14 0 17 -34 17 -22 0 -46 2 -54 5 -7 3 -20 0 -28 -6z
m40 -84 c0 -8 -2 -15 -4 -15 -2 0 -6 7 -10 15 -3 8 -1 15 4 15 6 0 10 -7 10
-15z m157 -7 c-3 -8 -6 -5 -6 6 -1 11 2 17 5 13 3 -3 4 -12 1 -19z m254 -2 c5
3 9 0 9 -5 0 -6 -7 -11 -15 -11 -8 0 -15 8 -14 18 0 10 3 12 6 4 2 -6 9 -10
14 -6z m-4 -58 c-3 -7 -5 -2 -5 12 0 14 2 19 5 13 2 -7 2 -19 0 -25z m-743
-10 c1 -7 6 -20 11 -28 8 -13 7 -13 -8 -1 -9 7 -17 23 -17 34 0 22 10 18 14
-5z m367 -74 c-1 -30 2 -61 8 -68 9 -11 6 -12 -14 -8 -14 2 -28 8 -31 13 -3 5
2 6 10 3 13 -5 16 3 16 46 0 45 -2 51 -17 45 -15 -5 -15 -3 2 13 11 11 22 18
24 16 3 -3 3 -29 2 -60z m503 37 c-2 -3 -12 3 -22 13 -16 17 -16 18 5 5 12 -7
20 -15 17 -18z m-987 13 c-3 -3 -12 -4 -19 -1 -8 3 -5 6 6 6 11 1 17 -2 13 -5z
m876 -1 c-10 -3 -10 -10 -2 -26 10 -21 10 -21 -6 -2 -15 18 -16 18 -61 -25
l-45 -45 38 -6 38 -6 -34 -2 -35 -1 35 -37 34 -38 -41 38 -41 38 -11 -23 -12
-23 6 23 c6 23 4 24 -50 20 -31 -1 -56 0 -56 4 0 4 28 8 62 10 l63 3 -4 44
c-1 24 1 41 6 38 6 -4 8 -21 5 -39 l-4 -33 35 34 c20 19 34 38 32 42 -6 9 13
17 40 17 11 0 14 -2 8 -5z m148 -40 c13 -16 12 -17 -3 -4 -10 7 -18 15 -18 17
0 8 8 3 21 -13z m-823 -59 c19 -27 32 -55 31 -72 -1 -17 -3 -20 -6 -9 -6 22
-6 22 -59 -9 -24 -14 -44 -24 -44 -21 0 3 22 18 50 34 l50 29 -27 37 -26 37
-26 -22 -26 -23 23 26 c12 14 19 29 15 32 -3 4 -2 7 3 6 5 0 24 -20 42 -45z
m151 24 c-41 -25 -90 -47 -85 -39 9 13 79 51 85 45 2 -2 2 -5 0 -6z m717 -13
c1 -8 -2 -15 -6 -15 -5 0 -8 9 -7 20 1 21 10 18 13 -5z m-145 -17 c11 -21 11
-22 -4 -9 -10 7 -17 17 -17 22 0 15 9 10 21 -13z m-1044 -10 c-3 -8 -6 -5 -6
6 -1 11 2 17 5 13 3 -3 4 -12 1 -19z m1343 -18 c0 -5 -5 -10 -11 -10 -5 0 -7
5 -4 10 3 6 8 10 11 10 2 0 4 -4 4 -10z m-678 -33 c-4 -15 -7 -17 -10 -7 -3 8
-9 20 -14 27 -6 8 -4 10 10 6 14 -3 18 -11 14 -26z m419 6 c13 -16 12 -17 -3
-4 -10 7 -18 15 -18 17 0 8 8 3 21 -13z m-888 -44 c-6 -29 -5 -31 15 -20 14 7
23 8 27 1 5 -8 -21 -15 -47 -11 -3 0 -9 -18 -13 -40 -4 -22 -9 -38 -12 -35 -4
4 10 84 22 124 8 25 14 11 8 -19z m454 -11 c-3 -8 -6 -5 -6 6 -1 11 2 17 5 13
3 -3 4 -12 1 -19z m484 -5 c13 -16 12 -17 -3 -4 -10 7 -18 15 -18 17 0 8 8 3
21 -13z m-767 -18 c3 -9 0 -15 -9 -15 -9 0 -12 6 -9 15 4 8 7 15 9 15 2 0 5
-7 9 -15z m-50 -4 c3 -4 -6 -6 -19 -3 -14 2 -25 6 -25 8 0 8 39 4 44 -5z m326
1 c0 -4 -21 -24 -47 -44 -58 -43 -257 -217 -261 -226 -1 -4 17 -27 41 -50 l44
-43 59 46 59 47 -55 -51 c-32 -30 -49 -51 -40 -51 10 -1 11 -3 3 -7 -9 -3 -13
-29 -13 -79 0 -74 0 -75 23 -64 21 11 22 11 2 -5 -17 -14 -18 -17 -5 -26 13
-9 12 -10 -2 -5 -16 5 -18 -2 -18 -59 0 -36 4 -65 9 -65 5 0 39 14 76 32 66
30 67 31 44 45 l-24 13 28 -6 27 -6 0 76 c0 42 -2 76 -5 76 -3 0 -18 -7 -33
-16 -22 -14 -21 -11 6 10 32 27 32 28 32 122 0 52 -3 94 -7 94 -3 0 -16 -8
-27 -17 -12 -10 -9 -4 7 13 29 32 54 40 54 18 0 -7 -4 -11 -9 -8 -4 3 -8 -38
-8 -90 0 -53 2 -96 5 -96 2 0 37 23 76 52 71 52 71 52 66 92 l-5 41 11 -37 10
-37 58 30 c45 22 57 33 53 46 -5 17 -5 17 6 1 6 -10 18 -18 27 -18 23 0 12 -8
-18 -13 -42 -8 -127 -55 -209 -116 l-77 -56 -2 -83 c-2 -83 -2 -84 21 -77 21
7 22 6 5 -7 -17 -13 -13 -16 47 -41 37 -15 69 -27 71 -27 3 0 6 24 7 53 l2 52
3 -52 c2 -29 7 -53 11 -53 4 0 36 27 72 61 36 33 80 72 97 86 37 28 35 43 -5
44 -15 0 -21 3 -14 6 8 3 11 17 9 36 -2 18 -2 24 0 15 2 -10 8 -18 12 -18 4 0
27 41 51 90 45 91 60 109 60 68 0 -15 -3 -19 -8 -11 -5 8 -25 -22 -55 -82
l-47 -95 24 -6 c29 -7 114 44 109 66 -4 13 -3 13 6 0 6 -8 11 -24 11 -35 0
-15 -2 -17 -9 -6 -7 11 -16 10 -47 -10 l-38 -23 44 -11 c42 -10 45 -10 52 9 6
20 6 20 7 -1 2 -39 21 -25 47 32 13 31 24 60 24 65 0 5 -17 0 -37 -11 -38 -21
-30 -13 39 37 26 19 40 39 48 70 7 25 15 43 17 40 6 -6 -29 -119 -39 -126 -13
-10 -70 -141 -64 -147 3 -3 23 2 44 11 38 17 39 17 96 -8 32 -14 64 -26 70
-26 14 1 67 47 64 57 -1 4 8 28 21 51 12 24 20 50 17 58 -3 9 -1 12 4 9 6 -3
10 -1 10 6 0 7 3 9 7 6 3 -4 16 1 27 10 14 12 12 7 -5 -12 -14 -17 -35 -54
-47 -84 -21 -52 -21 -55 -5 -75 18 -21 18 -21 -2 -4 -19 16 -22 16 -45 -2
l-25 -20 73 0 c62 0 71 -2 60 -14 -8 -9 -17 -11 -23 -5 -5 5 -32 9 -61 9 -51
0 -53 -1 -78 -44 -14 -25 -26 -60 -27 -78 -1 -31 -1 -31 -9 -8 -4 14 -8 21 -9
16 -1 -5 -7 -3 -14 3 -8 6 -17 8 -20 4 -4 -3 -7 -1 -7 5 0 6 -19 22 -42 36
l-42 25 -28 -32 c-15 -18 -27 -38 -28 -44 0 -8 -14 -12 -37 -12 -32 2 -34 3
-9 6 17 3 30 12 33 24 3 10 8 17 12 15 4 -3 7 13 6 35 0 21 -5 39 -10 39 -6 0
-41 -26 -79 -57 l-69 -58 39 -4 39 -5 -40 -5 c-28 -5 -39 -11 -37 -21 3 -11
-1 -11 -16 3 -13 12 -36 17 -77 17 -78 0 -67 8 15 11 63 2 67 4 128 57 34 30
61 57 58 59 -2 2 -39 -1 -82 -7 -44 -6 -86 -12 -94 -13 -17 -2 -110 -75 -109
-85 3 -20 -2 -32 -11 -27 -5 3 -10 1 -10 -4 0 -6 -4 -10 -8 -9 -5 2 -43 -28
-85 -67 -66 -60 -77 -74 -79 -105 l-1 -35 -4 40 c-3 29 -14 50 -41 77 -35 36
-36 37 -56 20 -21 -17 -21 -17 -4 4 17 20 17 21 -17 54 -22 21 -35 28 -35 19
0 -11 -2 -12 -9 0 -7 10 -13 11 -32 1 l-24 -11 24 19 c15 12 21 24 16 32 -5 9
-4 11 3 6 9 -5 12 10 12 54 0 57 -2 61 -32 81 -30 19 -25 20 17 3 13 -5 15 7
15 75 l0 82 -45 -31 c-25 -17 -45 -29 -45 -26 0 3 18 18 40 32 l41 27 -43 44
c-23 24 -49 41 -56 38 -19 -7 -3 16 27 40 13 10 63 53 110 94 47 41 95 82 105
91 11 8 31 27 45 41 27 28 41 35 41 21z m173 -19 c19 -22 11 -24 -25 -9 -14 6
-15 11 -5 21 7 7 12 12 12 11 0 0 8 -11 18 -23z m209 -21 c-5 -15 -7 -14 -10
3 -2 11 -9 27 -15 35 -7 8 -2 7 10 -3 14 -12 19 -25 15 -35z m196 -19 c22 -18
42 -28 44 -23 2 5 8 -2 14 -15 16 -33 2 -27 -52 22 -25 23 -55 45 -65 48 -10
4 -19 11 -19 16 0 6 5 7 10 4 6 -3 10 0 11 7 0 7 4 4 8 -7 5 -11 27 -35 49
-52z m-1375 17 c-3 -12 -8 -19 -11 -16 -5 6 5 36 12 36 2 0 2 -9 -1 -20z m154
-42 c19 -39 9 -35 -15 6 -11 19 -17 37 -14 41 4 3 8 0 11 -7 2 -7 10 -25 18
-40z m658 26 c9 -15 12 -23 6 -20 -11 7 -35 46 -28 46 3 0 12 -12 22 -26z
m-828 -56 c-3 -7 -5 -2 -5 12 0 14 2 19 5 13 2 -7 2 -19 0 -25z m81 25 c-10
-2 -26 -2 -35 0 -10 3 -2 5 17 5 19 0 27 -2 18 -5z m252 -27 c-6 -6 -10 -21
-11 -35 0 -15 -3 -20 -6 -13 -3 7 -2 29 2 49 5 27 9 33 15 22 6 -8 5 -18 0
-23z m1278 7 c-10 -2 -26 -2 -35 0 -10 3 -2 5 17 5 19 0 27 -2 18 -5z m-593
-13 c3 -5 -1 -10 -10 -10 -9 0 -13 5 -10 10 3 6 8 10 10 10 2 0 7 -4 10 -10z
m-116 -54 c-1 -17 -2 -18 -6 -3 -2 9 -9 15 -14 12 -5 -3 -6 2 -2 11 4 10 2 15
-4 11 -5 -3 -10 0 -10 8 0 13 4 12 19 -2 10 -9 17 -26 17 -37z m281 44 c13 -8
13 -10 -2 -10 -9 0 -20 5 -23 10 -8 13 5 13 25 0z m311 -7 c13 -16 12 -17 -3
-4 -10 7 -18 15 -18 17 0 8 8 3 21 -13z m-1481 -3 c0 -5 -5 -10 -11 -10 -5 0
-7 5 -4 10 3 6 8 10 11 10 2 0 4 -4 4 -10z m215 -40 c17 -19 21 -27 9 -17 -11
9 -25 17 -30 17 -5 0 -10 10 -11 21 -1 12 -1 20 0 18 1 -2 16 -20 32 -39z
m1202 3 c-3 -10 -5 -4 -5 12 0 17 2 24 5 18 2 -7 2 -21 0 -30z m-127 4 c0 -8
-6 -14 -14 -14 -8 0 -12 6 -9 14 3 7 9 13 14 13 5 0 9 -6 9 -13z m241 -4 c13
-16 12 -17 -3 -4 -10 7 -18 15 -18 17 0 8 8 3 21 -13z m-501 -28 c0 -5 -5 -3
-10 5 -5 8 -10 20 -10 25 0 6 5 3 10 -5 5 -8 10 -19 10 -25z m-733 -17 c-3 -7
-5 -2 -5 12 0 14 2 19 5 13 2 -7 2 -19 0 -25z m1116 -8 c3 -11 1 -18 -4 -14
-5 3 -9 12 -9 20 0 20 7 17 13 -6z m-1116 -24 c-2 -5 -11 -10 -21 -12 -13 -2
-14 1 -7 10 7 9 7 16 -2 25 -9 10 -6 10 11 0 12 -8 21 -18 19 -23z m1314 17
c13 -16 12 -17 -3 -4 -10 7 -18 15 -18 17 0 8 8 3 21 -13z m-1534 -21 c-13
-15 -14 -21 -4 -32 6 -8 2 -6 -11 4 l-22 19 22 13 c32 17 33 17 15 -4z m1080
-8 c-3 -3 -12 -4 -19 -1 -8 3 -5 6 6 6 11 1 17 -2 13 -5z m515 -19 c11 -14 23
-23 28 -20 4 3 6 -4 3 -15 -3 -11 -10 -20 -15 -20 -5 0 -6 5 -2 11 3 6 -6 24
-22 40 -15 16 -24 29 -20 29 5 0 17 -11 28 -25z m-1327 -37 c8 -10 12 -18 10
-18 -3 0 13 -27 35 -61 l42 -60 26 16 27 16 -23 -20 -23 -20 38 -21 c21 -12
29 -18 18 -14 -32 10 -75 14 -75 6 0 -4 -14 -23 -31 -42 l-31 -35 31 45 32 45
-38 7 c-21 4 -68 7 -105 6 -65 -1 -68 -2 -110 -45 l-43 -44 45 -84 c25 -47 48
-85 52 -85 4 0 39 14 78 31 61 28 69 34 58 48 -11 14 -11 14 4 3 14 -11 25 -8
78 25 33 22 58 42 55 46 -3 4 -2 5 1 2 4 -2 21 3 38 12 46 23 30 11 -59 -47
-44 -29 -82 -54 -84 -56 -3 -3 11 -21 30 -42 l34 -37 -37 34 -37 34 -63 -27
c-97 -41 -97 -40 -68 -73 14 -15 18 -22 8 -15 -9 7 -18 9 -20 5 -3 -4 -3 -3
-2 4 6 24 -19 25 -38 2 -19 -23 -19 -23 -8 -1 6 12 9 26 6 31 -3 5 -46 19 -96
31 -74 18 -93 20 -106 10 -13 -12 -11 -18 18 -49 22 -23 24 -28 6 -13 -19 18
-27 20 -31 10 -2 -7 -3 -5 -2 5 4 24 -10 21 -22 -5 -8 -20 -10 -18 -9 14 1 20
5 33 10 30 5 -3 7 2 3 11 -3 9 -2 19 3 22 4 3 10 1 12 -5 1 -5 29 19 61 55
l58 64 -22 43 c-25 49 -89 144 -89 132 0 -4 -5 -3 -12 4 -7 7 -21 12 -33 12
-11 0 -27 5 -35 10 -12 8 -13 11 -2 22 11 11 13 10 10 -1 -3 -15 56 -34 80
-26 7 3 10 0 7 -5 -4 -6 4 -14 17 -19 13 -6 19 -10 15 -10 -9 -1 30 -61 46
-72 5 -3 8 -8 7 -10 -3 -7 23 -59 30 -59 3 0 24 18 45 40 38 39 38 40 15 41
-24 2 -24 2 -2 6 13 3 19 9 16 15 -5 7 -2 8 6 3 7 -4 16 -2 21 6 7 11 9 10 9
-3 0 -16 11 -18 90 -18 50 0 90 3 90 7 0 10 -61 103 -68 103 -4 0 -29 -21 -57
-47 l-50 -48 52 55 52 55 -20 35 c-12 19 -14 26 -5 15 9 -11 23 -28 31 -37z
m712 20 c-3 -8 -6 -5 -6 6 -1 11 2 17 5 13 3 -3 4 -12 1 -19z m-627 -3 c-14
-8 -29 -14 -35 -14 -5 0 1 6 15 14 14 8 30 14 35 14 6 0 -1 -6 -15 -14z m637
-37 c-3 -8 -6 -5 -6 6 -1 11 2 17 5 13 3 -3 4 -12 1 -19z m-927 -15 c0 -7 -4
-13 -9 -13 -5 0 -11 6 -14 13 -3 8 1 14 9 14 8 0 14 -6 14 -14z m937 -25 c-3
-8 -6 -5 -6 6 -1 11 2 17 5 13 3 -3 4 -12 1 -19z m440 10 c0 -10 -17 -12 -61
-8 l-61 4 60 7 c33 3 60 6 61 7 0 1 1 -4 1 -10z m-1346 -35 c13 -16 12 -17 -3
-4 -10 7 -18 15 -18 17 0 8 8 3 21 -13z m499 7 c8 -5 11 -10 5 -10 -5 0 -17 5
-25 10 -8 5 -10 10 -5 10 6 0 17 -5 25 -10z m50 -20 c8 -5 11 -10 5 -10 -5 0
-17 5 -25 10 -8 5 -10 10 -5 10 6 0 17 -5 25 -10z m331 -7 c13 -16 12 -17 -3
-4 -10 7 -18 15 -18 17 0 8 8 3 21 -13z m-1101 -39 c0 -8 -19 -13 -24 -6 -3 5
1 9 9 9 8 0 15 -2 15 -3z m57 -31 c-3 -10 -5 -4 -5 12 0 17 2 24 5 18 2 -7 2
-21 0 -30z m136 20 c-7 -2 -21 -2 -30 0 -10 3 -4 5 12 5 17 0 24 -2 18 -5z
m537 -8 c0 -2 -10 -9 -22 -15 -22 -11 -22 -10 -4 4 21 17 26 19 26 11z m-425
-25 c10 -11 16 -20 13 -20 -3 0 -13 9 -23 20 -10 11 -16 20 -13 20 3 0 13 -9
23 -20z m693 -25 c4 -5 2 -5 -5 -1 -7 4 -39 -7 -73 -24 -33 -17 -60 -28 -60
-25 0 2 23 17 52 31 l52 26 -27 14 c-15 8 -27 17 -27 19 0 6 79 -30 88 -40z
m-647 -32 c13 -16 12 -17 -3 -4 -10 7 -18 15 -18 17 0 8 8 3 21 -13z m709 7
c8 -5 11 -10 5 -10 -5 0 -17 5 -25 10 -8 5 -10 10 -5 10 6 0 17 -5 25 -10z
m-340 -15 c14 -8 21 -14 15 -14 -5 0 -21 6 -35 14 -14 8 -20 14 -15 14 6 0 21
-6 35 -14z m-673 -17 c-3 -8 -6 -5 -6 6 -1 11 2 17 5 13 3 -3 4 -12 1 -19z
m351 -7 c-7 -11 -16 -17 -21 -14 -4 3 0 11 10 19 24 18 25 17 11 -5z m1289
-13 c-3 -8 -6 -5 -6 6 -1 11 2 17 5 13 3 -3 4 -12 1 -19z m53 -42 c0 -2 -7 -7
-16 -10 -8 -3 -12 -2 -9 4 6 10 25 14 25 6z m29 -71 c0 -5 -6 1 -14 15 -8 14
-14 30 -14 35 0 6 6 -1 14 -15 8 -14 14 -29 14 -35z m-324 -17 c-28 -29 -51
-54 -51 -56 -1 -1 -4 4 -8 13 -3 9 -2 14 2 11 5 -3 28 15 52 39 24 25 46 45
49 45 3 0 -17 -24 -44 -52z m-100 22 c10 -11 16 -20 13 -20 -3 0 -13 9 -23 20
-10 11 -16 20 -13 20 3 0 13 -9 23 -20z m-205 7 c0 -2 -25 -21 -55 -42 -30
-20 -55 -41 -55 -46 0 -5 -6 -9 -12 -9 -15 -1 -58 -35 -58 -46 0 -5 21 -30 47
-56 48 -49 83 -62 83 -30 0 13 2 14 9 3 5 -7 14 -10 20 -7 6 4 11 5 11 3 0 -7
-51 -39 -64 -41 -6 -1 -18 -6 -26 -11 -13 -8 -13 -7 -1 9 13 15 9 23 -39 71
-45 45 -56 52 -69 43 -13 -10 -14 -10 -3 2 6 8 12 25 13 40 0 19 2 21 7 8 6
-15 20 -8 92 47 76 57 100 72 100 62z m-588 -24 l-23 -16 23 -26 23 -26 -27
23 -26 24 -44 -47 c-52 -57 -54 -61 -36 -82 8 -11 9 -14 1 -10 -9 6 -13 -12
-16 -65 l-4 -73 1 78 c1 42 -2 77 -5 77 -4 0 -10 7 -13 16 -3 8 -2 12 4 9 6
-4 11 17 12 52 l1 58 6 -49 6 -49 38 41 c20 23 37 46 37 50 0 5 12 13 28 19
38 15 40 14 14 -4z m458 -18 c0 -5 -5 -3 -10 5 -5 8 -10 20 -10 25 0 6 5 3 10
-5 5 -8 10 -19 10 -25z m540 -72 c3 3 6 -16 6 -41 1 -44 1 -45 -9 -17 -13 40
-11 40 -51 13 -20 -14 -33 -28 -28 -33 4 -5 2 -5 -5 -1 -7 4 -35 -8 -63 -26
-36 -24 -49 -38 -46 -51 3 -14 1 -16 -8 -8 -7 6 -17 7 -21 3 -5 -4 -5 -1 0 6
5 9 -6 28 -31 55 l-39 42 40 -37 c45 -42 57 -47 49 -20 -4 12 -3 14 4 4 7 -11
28 -1 97 44 l87 57 -5 61 -5 61 11 -58 c7 -32 14 -56 17 -54z m-403 75 c-3 -8
-6 -5 -6 6 -1 11 2 17 5 13 3 -3 4 -12 1 -19z m635 -3 c-3 -20 -7 -23 -18 -14
-16 13 -19 23 -5 15 5 -3 11 1 15 9 9 24 14 18 8 -10z m-825 -17 c-3 -7 -5 -2
-5 12 0 14 2 19 5 13 2 -7 2 -19 0 -25z m-304 -42 c22 18 22 18 0 -7 -18 -20
-20 -28 -10 -39 10 -10 9 -11 -3 -4 -15 9 -20 10 -42 13 -8 1 -6 6 5 12 11 6
18 24 19 47 l1 37 4 -38 c4 -39 4 -39 26 -21z m484 22 c-3 -8 -6 -5 -6 6 -1
11 2 17 5 13 3 -3 4 -12 1 -19z m-1012 -18 c10 -11 16 -20 13 -20 -3 0 -13 9
-23 20 -10 11 -16 20 -13 20 3 0 13 -9 23 -20z m226 -7 c13 -16 12 -17 -3 -4
-10 7 -18 15 -18 17 0 8 8 3 21 -13z m-131 -13 c-6 -11 -13 -20 -16 -20 -2 0
0 9 6 20 6 11 13 20 16 20 2 0 0 -9 -6 -20z m907 -2 c-3 -8 -6 -5 -6 6 -1 11
2 17 5 13 3 -3 4 -12 1 -19z m-1140 -13 c-4 -8 -11 -15 -17 -15 -6 0 -6 7 2
20 14 22 24 19 15 -5z m213 -36 c0 -8 -6 -16 -14 -16 -8 0 -12 6 -9 14 3 7 -1
21 -8 30 -13 15 -12 15 9 2 12 -8 22 -21 22 -30z m1048 18 c0 -13 -6 -24 -13
-24 -10 0 -11 6 -2 24 5 13 11 23 12 23 2 0 3 -10 3 -23z m-691 7 c-3 -3 -12
-4 -19 -1 -8 3 -5 6 6 6 11 1 17 -2 13 -5z m560 -16 c-3 -8 -6 -5 -6 6 -1 11
2 17 5 13 3 -3 4 -12 1 -19z m-634 5 c-7 -2 -19 -2 -25 0 -7 3 -2 5 12 5 14 0
19 -2 13 -5z m-432 -26 c-10 -9 -11 -8 -5 6 3 10 9 15 12 12 3 -3 0 -11 -7
-18z m859 10 c0 -2 -17 -19 -37 -38 l-38 -34 34 38 c33 34 41 42 41 34z m-573
-106 c9 9 11 7 7 -7 -3 -13 9 -33 40 -63 41 -40 47 -43 63 -30 16 13 17 12 5
-3 -11 -14 -10 -17 5 -21 15 -4 14 -5 -4 -6 -12 0 -23 -4 -26 -8 -2 -5 -2 -3
-1 4 2 6 -18 32 -44 56 -26 25 -76 76 -112 113 l-65 69 60 -58 c46 -43 64 -54
72 -46z m249 62 c-8 -15 -15 -25 -16 -21 0 12 23 58 27 54 3 -2 -2 -17 -11
-33z m130 5 l29 -33 -32 29 c-31 28 -38 36 -30 36 2 0 16 -15 33 -32z m391 10
c-3 -8 -6 -5 -6 6 -1 11 2 17 5 13 3 -3 4 -12 1 -19z m103 17 c0 -2 -10 -9
-22 -15 -22 -11 -22 -10 -4 4 21 17 26 19 26 11z m-720 -50 c13 -14 21 -25 18
-25 -2 0 -15 11 -28 25 -13 14 -21 25 -18 25 2 0 15 -11 28 -25z m-344 -15 c0
-10 -2 -17 -5 -15 -2 3 -11 -1 -20 -8 -14 -11 -14 -10 -2 6 7 9 10 17 5 17 -6
0 9 15 21 20 1 0 1 -9 1 -20z m-106 -35 c0 -2 -6 -7 -12 -11 -7 -4 -10 -4 -6
0 4 5 -5 19 -20 33 l-27 25 33 -22 c17 -12 32 -23 32 -25z m768 26 c32 25 -8
-19 -70 -79 -32 -30 -58 -61 -58 -69 0 -20 -13 -16 -29 10 -12 19 -12 20 1 10
12 -10 24 -2 73 47 53 53 57 61 44 77 -13 16 -12 17 4 4 14 -11 20 -11 35 0z
m495 -8 c-7 -2 -21 -2 -30 0 -10 3 -4 5 12 5 17 0 24 -2 18 -5z m-743 -47 c12
-19 12 -20 -4 -7 -15 12 -21 11 -49 -15 l-32 -29 29 32 c26 28 27 34 15 49
-13 16 -12 16 7 4 12 -7 27 -22 34 -34z m643 37 c-7 -2 -21 -2 -30 0 -10 3 -4
5 12 5 17 0 24 -2 18 -5z m461 -1 c3 -5 -1 -9 -9 -9 -8 0 -12 4 -9 9 3 4 7 8
9 8 2 0 6 -4 9 -8z m-818 -44 l29 -33 -32 29 c-31 28 -38 36 -30 36 2 0 16
-15 33 -32z m759 23 c9 -16 -8 -20 -113 -33 -83 -9 -99 -14 -95 -27 4 -13 3
-13 -5 -2 -7 10 -15 11 -33 2 -24 -11 -24 -11 1 6 13 10 33 27 44 37 16 16 18
17 13 3 -5 -15 -1 -16 31 -12 20 2 58 7 85 10 26 4 47 10 47 16 0 12 17 12 25
0z m-1511 -14 c4 4 4 -1 0 -10 -3 -10 -7 -17 -8 -15 -1 2 -8 12 -16 23 -14 18
-13 19 1 8 9 -7 19 -10 23 -6z m916 10 c0 -1 -30 -32 -67 -67 -37 -36 -59 -55
-49 -43 16 20 17 25 5 40 -13 17 -12 17 4 4 16 -13 22 -10 60 27 39 40 47 46
47 39z m-399 -54 c13 -16 12 -17 -3 -4 -10 7 -18 15 -18 17 0 8 8 3 21 -13z
m979 -40 c-30 -32 -61 -61 -68 -66 -7 -4 -10 -12 -7 -17 3 -4 -3 -7 -12 -5
-10 1 -25 -4 -34 -11 -13 -12 -16 -12 -16 0 0 7 15 19 34 25 19 7 31 17 27 23
-4 6 -3 8 3 5 5 -3 34 18 63 48 30 30 57 55 59 55 3 0 -19 -26 -49 -57z m-310
27 c-6 -10 -9 -24 -8 -29 2 -5 -6 -16 -17 -25 -20 -14 -20 -15 10 -48 l30 -33
-31 28 c-16 15 -34 27 -38 27 -18 0 -127 -104 -122 -116 3 -8 0 -11 -10 -7 -9
3 -30 -8 -52 -28 l-37 -34 38 41 c20 22 35 43 32 45 -3 3 1 6 9 6 23 0 152
114 176 156 22 38 39 53 20 17z m-1059 -13 c-10 -9 -11 -8 -5 6 3 10 9 15 12
12 3 -3 0 -11 -7 -18z m1109 8 c0 -2 -10 -9 -22 -15 -22 -11 -22 -10 -4 4 21
17 26 19 26 11z m-1094 -47 c3 -11 3 -22 0 -25 -3 -4 -6 0 -6 7 0 7 -7 18 -16
25 -15 11 -15 12 0 12 8 0 18 -9 22 -19z m1261 -10 c-3 -8 -6 -5 -6 6 -1 11 2
17 5 13 3 -3 4 -12 1 -19z m-1376 -5 c13 -16 12 -17 -3 -4 -10 7 -18 15 -18
17 0 8 8 3 21 -13z m590 0 c13 -16 12 -17 -3 -4 -10 7 -18 15 -18 17 0 8 8 3
21 -13z m135 -43 c-32 -36 -36 -47 -38 -98 l-1 -57 -6 60 c-3 33 -9 65 -14 72
-4 7 -1 10 11 7 10 -3 29 7 46 25 43 45 44 38 2 -9z m-85 3 c13 -16 12 -17 -3
-4 -10 7 -18 15 -18 17 0 8 8 3 21 -13z m-136 -23 c-9 -16 -18 -30 -21 -30 -2
0 2 14 11 30 9 17 18 30 21 30 2 0 -2 -13 -11 -30z m733 6 c0 -28 -25 -43 -42
-26 -7 7 -7 11 -1 10 18 -4 35 0 34 8 -2 12 1 32 5 32 2 0 4 -11 4 -24z m-953
-26 c6 -20 5 -22 -5 -13 -7 6 -20 9 -29 6 -12 -4 -10 -1 4 11 11 10 14 15 8
11 -9 -4 -11 -1 -7 10 8 19 19 10 29 -25z m-125 -20 c0 -5 -8 -10 -17 -10 -15
0 -16 2 -3 10 19 12 20 12 20 0z m928 -110 c7 0 12 -4 12 -10 0 -19 -16 -10
-51 27 -29 33 -30 34 -3 10 16 -15 35 -27 42 -27z m-131 -2 c-3 -7 -5 -2 -5
12 0 14 2 19 5 13 2 -7 2 -19 0 -25z m-581 6 c-3 -8 -1 -25 6 -37 10 -19 9
-20 -4 -9 -17 14 -32 56 -17 46 5 -3 9 0 9 5 0 6 3 11 6 11 3 0 3 -7 0 -16z
m306 -55 c-3 -42 -1 -59 7 -55 7 4 9 1 5 -8 -4 -11 -9 -12 -17 -4 -12 11 -11
128 1 128 4 0 5 -28 4 -61z m159 27 c-18 -19 -22 -33 -19 -65 2 -22 0 -37 -3
-33 -19 19 -13 72 10 96 14 14 27 26 29 26 3 0 -5 -11 -17 -24z m-500 -13
c-12 -20 -14 -14 -5 12 4 9 9 14 11 11 3 -2 0 -13 -6 -23z m166 -19 c-3 -3
-12 -4 -19 -1 -8 3 -5 6 6 6 11 1 17 -2 13 -5z m446 -59 c-3 -9 -8 -14 -10
-11 -3 3 -2 9 2 15 9 16 15 13 8 -4z m-432 -17 c11 -21 11 -22 -4 -9 -10 7
-17 17 -17 22 0 15 9 10 21 -13z"/>
<path d="M1669 1397 l-44 -39 75 6 c159 12 188 33 80 57 l-67 15 -44 -39z"/>
<path d="M1895 1394 l-50 -22 70 -1 c87 -1 107 9 63 31 -31 14 -36 14 -83 -8z"/>
<path d="M1987 1360 c-42 -3 -78 -9 -78 -14 -1 -13 102 -77 113 -70 9 6 51 85
46 87 -2 1 -38 0 -81 -3z"/>
<path d="M1863 1353 c-7 -2 -13 -16 -13 -30 0 -22 2 -24 15 -13 9 7 14 19 11
26 -3 7 0 15 7 18 7 2 8 4 2 4 -5 0 -16 -2 -22 -5z"/>
<path d="M1247 1272 c-32 -15 -55 -30 -51 -35 4 -4 1 -7 -6 -7 -9 0 -8 -6 5
-20 10 -11 22 -17 27 -14 4 3 7 2 6 -3 -2 -5 14 -27 35 -50 27 -28 45 -40 59
-38 25 5 150 114 143 125 -3 5 0 10 6 12 15 5 -121 58 -146 57 -11 0 -46 -13
-78 -27z m133 -32 c0 -5 -8 -14 -17 -20 -14 -9 -10 -10 22 -6 l40 5 -37 -16
c-27 -11 -40 -25 -49 -50 -6 -19 -13 -32 -15 -30 -3 2 0 16 5 30 8 21 7 26 -9
30 -12 3 -21 -1 -23 -12 -3 -12 -5 -10 -6 5 -1 15 -12 24 -42 33 -23 7 -39 14
-36 17 2 2 16 0 31 -6 15 -5 31 -8 36 -5 5 3 10 1 12 -4 1 -4 14 -12 27 -16
15 -5 21 -4 17 3 -3 6 3 17 14 25 11 7 17 17 13 20 -3 4 -1 7 5 7 7 0 12 -4
12 -10z m-73 -112 c-3 -8 -6 -5 -6 6 -1 11 2 17 5 13 3 -3 4 -12 1 -19z"/>
<path d="M636 1291 l-49 -49 42 -11 c22 -6 59 -16 82 -22 23 -6 43 -8 46 -5 4
3 -58 119 -71 133 -1 2 -24 -20 -50 -46z"/>
<path d="M575 1959 c-11 -17 1 -21 15 -4 8 9 8 15 2 15 -6 0 -14 -5 -17 -11z"/>
<path d="M425 1500 c4 -6 2 -17 -4 -24 -9 -10 -8 -15 4 -20 11 -4 15 2 15 24
0 17 -5 30 -11 30 -5 0 -7 -5 -4 -10z"/>
<path d="M413 1438 c3 -10 3 -18 -1 -18 -4 0 -8 -9 -8 -19 0 -13 7 -19 18 -18
23 2 24 40 1 58 -15 12 -16 12 -10 -3z"/>
<path d="M674 709 c-4 -7 0 -17 8 -23 8 -6 17 -19 21 -29 4 -11 16 -21 27 -24
11 -3 20 -10 20 -15 0 -6 7 -8 15 -4 8 3 15 0 15 -6 0 -6 3 -8 7 -4 10 9 -78
96 -90 89 -6 -3 -7 -1 -3 5 3 6 2 13 -3 16 -5 4 -13 1 -17 -5z"/>
</g>
</svg>
